<?xml version="1.0" encoding="UTF-8"?>
<svg id="Layer_1" xmlns="http://www.w3.org/2000/svg" viewBox="0 0 1997.34 884.07">
  <defs>
    <style>
      .cls-1 {
        fill: #fff;
      }
    </style>
  </defs>
  <path class="cls-1" d="M777.43,62.8l-62.24,3.25-.81.04-20.87,1.09-48.09,2.5L63.67,96.25l-27.11,1.23-1.91,27.07L2.41,582.9l-2.41,34.37,34.41-1.8,195.58-10.26-16.68,244.4-2.36,34.45,34.48-1.95,1533.09-86.66,26.83-1.52,1.86-26.81,50.18-726.5,2.37-34.33-34.36,1.79L777.43,62.8ZM1776.8,765.02l-1533.09,86.66,19.04-278.7-229.93,12.06L65.06,126.68l581.83-26.55,34.12-1.78-13.53,33.71c-1.4,3.82.84,5.83,4.03,5.66l66.45-3.48c2.65-.13,4.73-1.31,6.18-4.05l17.82-36.06,1065.04-55.6-50.19,726.5Z"/>
  <path class="cls-1" d="M354.15,511c3.19-.17,5.2-2.41,5.6-5.09l11.17-142.92,5.85-.31-.07,1.35,15.68-.82-10.63,147.41,140.47-7.36c3.19-.17,5.21-2.41,5.57-5.62l11.26-161.59-37.09-168.65c-.14-2.66-2.35-4.14-5.54-3.97l-128.13,6.71c-2.66.14-4.7,1.85-5.62,4.56l-22.48,59.29-14.2-57.36c-.67-2.63-2.35-4.14-5.54-3.97l-128.66,6.74c-2.13.11-4.7,1.85-6.16,4.59l-60.2,173.75-11.26,161.59c-.36,3.22,2.4,5.2,5.06,5.07l148.55-7.79,10.63-147.41,6.27-.33.11-1.35,6.38-.33-.09,1.35,8.55-.45-10.56,146.34,65.07-3.41Z"/>
  <path class="cls-1" d="M564.4,164.45l-23.13,331.74c-.37,3.22,1.87,5.23,5.06,5.07l274.86-14.4c3.19-.17,5.21-2.41,5.57-5.62l7.45-109.45-127.38,6.68.33-4.28,1.31-16.93,126.64-6.64c.34-.64.58-1.33.69-2.07l4.22-60.3-126.86,6.65.3-3.86,1.34-17.35,127.14-6.66,7.96-117.53c.36-3.22-2.4-5.2-5.06-5.07l-274.86,14.4c-3.19.17-5.21,2.41-5.57,5.62Z"/>
  <path class="cls-1" d="M840.26,479.78c-.37,3.23,2.4,5.21,5.06,5.08l247.75-12.99c47.03-2.46,75.87-30.3,79.49-77.91.03-.3.05-.6.07-.89l13.37-192.63c3.34-48.15-21.44-73.5-69.29-71l-247.75,12.99c-3.19.16-5.21,2.4-5.57,5.62l-18.51,265.49-4.62,66.24ZM1009.58,224.46l21.21-1.11-11.61,161.02-21.23,1.11,11.62-161.02Z"/>
  <path class="cls-1" d="M1186.31,466.24l148.86-7.8c3.19-.17,5.2-2.41,5.57-5.62l23.13-331.74c.36-3.22-2.4-5.2-5.06-5.07l-148.86,7.8c-3.19.17-5.21,2.41-5.57,5.62l-23.13,331.74c-.36,3.22,2.4,5.2,5.06,5.07Z"/>
  <path class="cls-1" d="M1359.06,381.39l-4.82,69.98c-.36,3.22,2.41,5.21,5.06,5.08l149.39-7.84c.54-.01,1.02-.09,1.47-.21l5.46-75.67,21.23-1.13-5.47,75.83,144.79-7.59c3.72-.19,5.21-2.4,5.57-5.62l4.99-72.43,3.49-50.63-37.5-207.02c-.7-3.15-2.89-4.11-6.07-3.94l-210.54,11.02c-2.65.13-4.73,1.31-5.62,4.56l-67.76,212.53-3.66,53.08ZM1526.86,198.66l21.24-1.11-7.31,101.3-21.23,1.11,7.3-101.3Z"/>
  <path class="cls-1" d="M617.11,580.32c2.77-39.87-17.76-60.87-57.38-58.79l-205.15,10.75c-2.64.15-4.31,1.99-4.61,4.66l-4.36,62.52-14.79,212.17c-.3,2.66,1.99,4.31,4.19,4.19l205.15-10.75c39.18-2.05,63.11-25.38,65.88-65.26l10.72-154.57.34-4.92ZM477.81,735.87l-17.57.93,9.93-137.58,17.57-.93-9.93,137.58Z"/>
  <path class="cls-1" d="M865.39,504.77l-227.59,11.93c-2.64.14-4.31,1.99-4.61,4.66l-19.15,274.69c-.3,2.66,1.55,4.33,4.19,4.19l227.59-11.93c2.64-.14,4.31-1.99,4.61-4.66l6.31-92.74-105.84,5.55.77-10.4.53-7.16,105.75-5.54,3.5-50.08c.06-.53.01-1.02-.08-1.46l-105.22,5.51.91-12.35.38-5.21,105.7-5.54,6.45-95.27c.3-2.66-1.99-4.31-4.19-4.19Z"/>
  <path class="cls-1" d="M1217.56,582.84l1.87-29.19.32-4.92c2.73-40.75-18.63-60.82-57.38-58.79l-205.15,10.75c-2.62.15-4.31,2-4.6,4.66l-4.36,62.52-14.8,212.17c-.3,2.66,1.55,4.33,4.2,4.2l121.69-6.39,6.96-96.61,17.58-.91-6.97,96.61,123.1-6.45c2.65-.15,4.31-1.99,4.61-4.65l7.33-104.56-27.48-27.26c18.9-10.26,31.75-25.94,33.07-51.17ZM1088.39,619.45l-17.57.93,3.51-48.82,17.58-.91-3.52,48.8Z"/>
  <path class="cls-1" d="M1502.8,471.36l-121.4,6.36-15.89,207.62-17.59.92,15.89-207.62-123.39,6.47c-2.64.14-4.31,1.99-4.61,4.66l-15.11,217.09c-2.77,39.87,17.76,60.87,57.38,58.79l147.91-7.75c39.18-2.05,63.12-25.38,65.88-65.25l15.11-217.09c.3-2.66-1.55-4.33-4.19-4.19Z"/>
  <path class="cls-1" d="M1518.03,474.19l-19.15,274.69c-.3,2.66,1.55,4.33,4.19,4.19l227.59-11.93c2.64-.14,4.31-1.99,4.61-4.66l6.31-92.74-105.84,5.55,1.29-17.56,105.74-5.54,3.5-50.08c.06-.53.01-1.02-.08-1.46l-105.22,5.51,1.29-17.56,105.69-5.54,6.45-95.27c.3-2.66-1.99-4.31-4.19-4.19l-227.59,11.93c-2.64.14-4.31,1.99-4.61,4.66Z"/>
  <g>
    <path class="cls-1" d="M1950.09,0c-27.83,0-47.26,19.9-47.26,48.37s19.43,48.37,47.26,48.37,47.25-19.9,47.25-48.37S1977.9,0,1950.09,0ZM1950.09,85.47c-24.73,0-36-19.23-36-37.1s11.27-37.1,36-37.1,36,19.23,36,37.1-11.26,37.1-36,37.1Z"/>
    <path class="cls-1" d="M1962.7,57.72c-2.36,3.4-6.85,5.6-11.46,5.6-7.05,0-14.18-5.19-14.18-15.1s7.12-14.96,14.18-14.96c4.99,0,9.24,2.09,11.38,5.62l1.46,2.43,9.26-6.75-1.46-2.09c-4.6-6.59-11.94-10.23-20.64-10.23-14.68,0-25.33,10.93-25.33,25.99s10.65,26.13,25.33,26.13c8.74,0,16.08-3.68,20.65-10.39l1.48-2.16-9.2-6.2-1.46,2.12Z"/>
  </g>
</svg>