<?xml version="1.0" encoding="UTF-8"?>
<svg id="Layer_2" data-name="Layer 2" xmlns="http://www.w3.org/2000/svg" viewBox="0 0 213.07 143.43">
  <defs>
    <style>
      .cls-1 {
        fill: #ff001a;
        stroke-width: 0px;
      }
    </style>
  </defs>
  <g id="Calque_1" data-name="Calque 1">
    <g>
      <g>
        <polygon class="cls-1" points="57.82 115.81 28.09 0 0 0 36.71 142.98 71.71 142.83 103.29 99.98 86.39 77.05 57.82 115.81"/>
        <path class="cls-1" d="M184.87,0l-29.73,115.81-55.34-75.11h13.24l-3.25,4.6-.16.22,16.91,22.94,10.82-14.67h0c6.68-8.74,10.3-19.44,10.3-30.44v-4.99s-81.63,0-81.63,0v5.91c0,10.44,3.26,20.61,9.31,29.11l.3.42,65.63,89.06,35,.15L212.96,0h-28.09Z"/>
      </g>
      <rect class="cls-1" x="189.07" y="119.43" width="24" height="24"/>
    </g>
  </g>
</svg>